<?xml version="1.0" encoding="utf-8"?>
<!-- Generator: Adobe Illustrator 19.0.0, SVG Export Plug-In . SVG Version: 6.00 Build 0)  -->
<svg version="1.1" id="algebrica_x5F_p_x26_b_xA0_Imagem_1_"
	 xmlns="http://www.w3.org/2000/svg" xmlns:xlink="http://www.w3.org/1999/xlink" x="0px" y="0px" viewBox="0 0 226.8 45.4"
	 style="enable-background:new 0 0 226.8 45.4;" xml:space="preserve">
<style type="text/css">
	.st0{fill:#FFFFFF;}
	.st1{fill:#B91818;}
</style>
<g>
	<path class="st0" d="M78.9,18.2c-0.8,0.9-1.4,1.7-1.9,2.3c-1.8-1.5-3.4-3.1-5.2-4.2c-6.7-4-15.4-1-18.8,6c-4.4,9,1.9,18,10.1,19.7
		c5.2,1.1,12.5-2.8,13.6-8.4c0.1-0.6,0.1-1.2,0.2-2c-3.3,0-6.5,0-9.8,0c0-1.1,0-2.1,0-3.2c4.4,0,8.9,0,13.3,0
		c0.9,7.2-3,13.4-9.7,15.7c-6.7,2.3-12.8,0.9-17.8-4.2c-6.4-6.5-6.2-16.9-0.1-23.2c3.9-4.1,8.7-5.8,14.2-5.4
		C72,11.9,76,14.4,78.9,18.2z"/>
	<path class="st0" d="M122.5,27.3c4.7,1.6,6.2,5.2,6.2,8.5c0,4.2-2.7,7.8-6.9,8.5c-4,0.6-8.1,0.6-12.3,0.9c0-11.2,0-22.1,0-33.4
		c3.5,0.3,6.9,0.3,10.3,0.9c3.7,0.7,5.7,3.6,5.8,7.4C125.8,23,124.9,25.4,122.5,27.3z M113,41.7c3,0.1,5.9,0.2,8.7-0.8
		c2.1-0.8,3.3-2.3,3.5-4.4c0.3-2.3-0.2-4.5-2.5-5.8c-3.1-1.7-6.4-1.4-9.8-1.4C113,33.5,113,37.5,113,41.7z M113,15.1
		c0,4,0,7.7,0,11.6c1.2-0.1,2.3-0.2,3.3-0.2c3.7-0.1,5.6-1.5,6-5.1c0.3-2.6-0.5-5.3-3.8-5.9C116.7,15.2,114.9,15.2,113,15.1z"/>
	<path class="st0" d="M134.6,11.8c3.5,0.3,7,0.2,10.3,1c7.1,1.7,7.1,9.6,4.5,13.6c-1.5,2.4-4,3.2-6.8,3.7c3.5,5,6.9,9.8,10.5,14.8
		c-1.4,0-2.6,0.1-3.8,0c-0.4,0-0.7-0.5-1-0.9c-3-4.2-5.9-8.5-8.8-12.8c-0.3-0.4-0.9-0.7-1.4-1c-0.2,0.5-0.5,1-0.5,1.5
		c0,4.3,0,8.6,0,13.1c-1,0-2,0-3.1,0C134.6,34,134.6,23.1,134.6,11.8z M137.7,14.9c0,3.5,0,6.5,0,9.5c0,3,0,3.1,3,2.8
		c3.7-0.3,7.2-1.3,6.8-6.9c-0.2-2.1-1.2-4-3.3-4.5C142.2,15.4,140.1,15.3,137.7,14.9z"/>
	<path class="st0" d="M212.1,10.6c5,11.6,9.8,22.9,14.7,34.2c-0.2,0-0.3,0.1-0.4,0.1c-3.3,0.1-3.3,0.1-4.5-2.9
		c-0.7-1.8-1.6-3.6-2.3-5.4c-0.3-0.9-0.8-1.2-1.8-1.2c-3.9,0.1-7.9,0.1-11.8,0c-0.9,0-1.4,0.3-1.7,1.1c-0.9,2.4-2,4.7-2.9,7.1
		c-0.4,1-0.9,1.6-2.1,1.4c-0.7-0.1-1.4,0-2.3,0C202.1,33.5,207,22.2,212.1,10.6z M217.7,32.2c-1.9-4.5-3.7-8.9-5.7-13.6
		c-2,4.8-3.9,9.2-5.8,13.6C210.1,32.2,213.8,32.2,217.7,32.2z"/>
	<path class="st0" d="M0,44.9c5-11.5,10-22.7,15.1-34.3c5,11.6,9.8,22.8,14.6,34.1c-0.1,0.1-0.2,0.2-0.3,0.2
		c-3.5,0.1-3.5,0.1-4.8-3.2c-0.7-1.9-1.5-3.7-2.3-5.5c-0.2-0.4-0.7-0.7-1.1-0.8c-4.2-0.1-8.5-0.1-12.7,0c-0.4,0-1,0.4-1.1,0.7
		C6.2,39,5,41.9,3.8,44.9C2.6,44.9,1.4,44.9,0,44.9z M20.7,32.2c-1.9-4.5-3.7-8.9-5.7-13.7c-2,4.8-3.9,9.2-5.8,13.7
		C13.2,32.2,16.8,32.2,20.7,32.2z"/>
	<path class="st0" d="M102.5,25.3c0,1.2,0,2.1,0,3.2c-4.3,0-8.5,0-12.8,0c0,4.4,0,8.8,0,13.3c4.4,0,8.8,0,13.3,0c0,1.1,0,2.1,0,3.1
		c-5.5,0-11.1,0-16.7,0c0-10.9,0-21.8,0-32.8c5.6,0,11.2,0,16.7,0c0,1,0,2,0,3.1c-4.4,0-8.8,0-13.2,0c0,3.4,0,6.6,0,10
		C93.9,25.3,98.1,25.3,102.5,25.3z"/>
	<path class="st0" d="M193.7,38.1c0,0.8-0.1,1.5,0,2.1c0.3,1.6-0.5,2.5-1.8,3.2c-6.7,3.5-14.9,2.5-20.2-3.1
		c-9.2-9.5-4.7-24.6,7.7-28.2c4.4-1.3,8.6-0.8,12.7,1.4c1.2,0.6,2,1.4,1.7,2.9c-0.1,0.7,0,1.4,0,2.2c-8-6.5-15.7-4.4-20.3,0.9
		c-4.4,5.1-4.2,13.1,0.4,18.1C178.8,43,186.4,44.3,193.7,38.1z"/>
	<path class="st0" d="M46.3,41.7c0,1.1,0,2,0,3.1c-4.2,0-8.3,0-12.6,0c0-10.8,0-21.7,0-32.7c1.1,0,2.1,0,3.4,0c0,0.5,0,1.1,0,1.6
		c0,8.6,0,17.3,0,25.9c0,2.3-0.3,2.1,2,2.1C41.4,41.8,43.8,41.7,46.3,41.7z"/>
	<path class="st0" d="M158.3,12.1c1.1,0,2.2,0,3.3,0c0,10.9,0,21.7,0,32.7c-1,0-2.1,0-3.3,0C158.3,34,158.3,23.1,158.3,12.1z"/>
	<path class="st1" d="M90.1,7c1.7-2.4,3.3-4.6,5-7c1.1,0.5,2.2,1,3.3,1.5c-1.6,1.7-3.2,3.3-4.7,4.9C92.2,8.1,92.2,8.1,90.1,7z"/>
</g>
</svg>
